<?xml version="1.0" encoding="utf-8"?>
<!-- Generator: Adobe Illustrator 16.0.4, SVG Export Plug-In . SVG Version: 6.00 Build 0)  -->
<!DOCTYPE svg PUBLIC "-//W3C//DTD SVG 1.1//EN" "http://www.w3.org/Graphics/SVG/1.1/DTD/svg11.dtd">
<svg version="1.1" id="Capa_1" xmlns="http://www.w3.org/2000/svg" xmlns:xlink="http://www.w3.org/1999/xlink" x="0px" y="0px"
	 width="180.167px" height="180.167px" viewBox="-80.167 -80.167 180.167 180.167"
	 enable-background="new -80.167 -80.167 180.167 180.167" xml:space="preserve">
<g>
	<path fill="#FDFEFF" d="M310.533,98.857H161.287c-1.589,0-2.869-1.287-2.869-2.869V1.762c0-1.1,0.622-2.098,1.608-2.581
		c0.983-0.483,2.159-0.356,3.024,0.317l72.854,56.905l72.86-56.905c0.862-0.673,2.036-0.8,3.024-0.317
		c0.986,0.483,1.611,1.481,1.611,2.581v94.226C313.4,97.57,312.117,98.857,310.533,98.857z M164.156,93.114H307.66V7.644
		l-69.984,54.659c-1.043,0.814-2.494,0.814-3.539,0l-69.98-54.659V93.114z"/>
	<path fill="#FDFEFF" d="M310.533,98.857H161.287c-1.224,0-2.315-0.78-2.715-1.938c-0.397-1.159-0.018-2.445,0.947-3.196
		l60.324-47.111c1.037-0.81,2.49-0.81,3.532,0l12.528,9.791l12.533-9.791c1.041-0.81,2.5-0.81,3.533,0l60.324,47.111
		c0.965,0.751,1.347,2.037,0.945,3.196C312.846,98.077,311.752,98.857,310.533,98.857z M169.621,93.114h132.574l-51.991-40.603
		l-12.528,9.791c-1.043,0.814-2.494,0.814-3.539,0l-12.529-9.791L169.621,93.114z"/>
	<path fill="#FDFEFF" d="M161.287,4.631c-0.852,0-1.697-0.378-2.264-1.103c-0.977-1.251-0.754-3.053,0.496-4.03l62.645-48.921
		c1.248-0.974,3.053-0.75,4.027,0.496c0.977,1.248,0.752,3.052-0.498,4.03l-62.643,48.92C162.527,4.434,161.904,4.631,161.287,4.631
		z"/>
	<path fill="#FDFEFF" d="M229.475,16.132c-0.883,0-1.738-0.405-2.297-1.147l-20.295-27.058c-0.771-1.03-0.764-2.446,0.018-3.467
		l39.386-51.445c0.54-0.71,1.384-1.127,2.28-1.127c0.91,0.006,1.756,0.43,2.291,1.149l41.326,55.09
		c0.538,0.719,0.711,1.648,0.465,2.511c-0.252,0.863-0.888,1.563-1.723,1.888l-60.414,23.417
		C230.174,16.072,229.822,16.132,229.475,16.132z M212.781-13.777l17.686,23.58l54.853-21.262l-36.778-49.03L212.781-13.777z"/>
	<path fill="#FDFEFF" d="M295.529-4.037c-0.438,0-0.884-0.03-1.327-0.096c-2.446-0.347-4.608-1.63-6.092-3.607l-42.358-56.467
		c-1.484-1.976-2.106-4.414-1.756-6.861c0.344-2.446,1.629-4.608,3.605-6.093c1.979-1.482,4.408-2.111,6.859-1.758
		c2.449,0.351,4.611,1.631,6.091,3.609l42.363,56.466c3.056,4.084,2.225,9.891-1.85,12.953
		C299.446-4.677,297.521-4.037,295.529-4.037z M253.15-73.274c-0.759,0-1.493,0.245-2.107,0.703
		c-0.749,0.564-1.232,1.385-1.367,2.315c-0.131,0.929,0.103,1.852,0.667,2.604l42.359,56.469c0.562,0.75,1.38,1.238,2.313,1.368
		c0.931,0.129,1.854-0.105,2.603-0.667c1.549-1.163,1.868-3.37,0.704-4.92l-42.36-56.467c-0.565-0.75-1.378-1.236-2.313-1.369
		C253.484-73.262,253.314-73.274,253.15-73.274z"/>
	<path fill="#FDFEFF" d="M215.262,23.455c-0.135,0-0.27-0.005-0.406-0.03c-0.754-0.107-1.434-0.512-1.892-1.119L195.878-0.479
		c-0.95-1.268-0.694-3.067,0.574-4.017l12.605-9.458c0.616-0.455,1.384-0.654,2.132-0.543c0.752,0.107,1.432,0.511,1.887,1.117
		L230.17,9.408c0.95,1.263,0.694,3.062-0.576,4.013l-12.611,9.458C216.481,23.256,215.877,23.455,215.262,23.455z M202.189-1.625
		l13.645,18.192l8.02-6.014L210.207-7.64L202.189-1.625z"/>
	<path fill="#FDFEFF" d="M203.146,25.982c-2.26,0-4.494-1.026-5.953-2.966l-6.41-8.547c-2.458-3.28-1.793-7.949,1.487-10.41
		l6.782-5.087c0.608-0.457,1.372-0.654,2.126-0.545c0.754,0.107,1.434,0.51,1.893,1.121l11.886,15.851
		c0.46,0.61,0.651,1.374,0.55,2.124c-0.111,0.754-0.514,1.433-1.123,1.895l-6.781,5.083
		C206.269,25.497,204.705,25.982,203.146,25.982z M200.198,5.286l-4.485,3.367c-0.75,0.559-0.897,1.625-0.336,2.374l6.403,8.541
		c0.56,0.746,1.628,0.899,2.376,0.339l4.486-3.361L200.198,5.286z"/>
	<path fill="#FDFEFF" d="M252.042,47.511c-1.144,0-2.29-0.186-3.404-0.559c-2.726-0.904-4.934-2.817-6.218-5.388l-13.851-27.658
		c-0.364-0.719-0.401-1.567-0.112-2.319c0.293-0.756,0.886-1.349,1.641-1.64l14.76-5.722c1.383-0.528,2.943,0.066,3.606,1.39
		l13.183,26.328c2.652,5.297,0.496,11.773-4.804,14.427C255.329,47.124,253.693,47.511,252.042,47.511z M235.109,14.157L247.549,39
		c0.599,1.193,1.631,2.086,2.9,2.509c1.267,0.429,2.624,0.324,3.825-0.271c1.194-0.598,2.091-1.63,2.51-2.901
		c0.427-1.27,0.324-2.628-0.272-3.824l-12.008-23.994L235.109,14.157z"/>
	<path fill="#FDFEFF" d="M287.982-31.095c-0.869,0-1.732-0.395-2.297-1.148L268.6-55.025c-0.955-1.268-0.696-3.068,0.568-4.02
		c3.128-2.344,7.155-3.026,11.34-1.927c3.94,1.036,7.578,3.568,10.25,7.127c2.669,3.558,4.075,7.761,3.974,11.834
		c-0.119,4.324-1.9,7.999-5.026,10.342C289.189-31.282,288.588-31.095,287.982-31.095z M275.329-55.619l12.814,17.083
		c0.524-1.045,0.807-2.273,0.849-3.625c0.073-2.787-0.934-5.712-2.829-8.242c-1.898-2.527-4.422-4.309-7.117-5.019
		C277.737-55.763,276.479-55.826,275.329-55.619z"/>
	<path fill="#FDFEFF" d="M251.596,21.159c-1.344,0-2.537-0.943-2.812-2.311c-0.307-1.555,0.707-3.069,2.256-3.376
		c4.363-0.866,7.26-2.593,8.629-5.14c2.058-3.866,0.155-8.702,0.131-8.75c-0.604-1.461,0.088-3.142,1.55-3.753
		c1.465-0.607,3.142,0.088,3.753,1.551c0.127,0.297,2.988,7.354-0.377,13.657c-2.209,4.137-6.432,6.852-12.568,8.066
		C251.969,21.141,251.783,21.159,251.596,21.159z"/>
</g>
<g>
	<path fill="#FDFEFF" d="M-229.721,8.883c-1.583,0-2.871-1.283-2.871-2.869v-59.766c0-1.584,1.287-2.872,2.871-2.872h59.663
		c1.583,0,2.869,1.288,2.869,2.872c0,1.584-1.286,2.869-2.869,2.869h-56.794V6.014C-226.852,7.6-228.137,8.883-229.721,8.883z"/>
	<path fill="#FDFEFF" d="M-250.478,94c-13.027,0-23.627-10.604-23.627-23.633V6.014c0-1.585,1.286-2.871,2.87-2.871h41.514
		c1.584,0,2.869,1.286,2.869,2.871v64.354C-226.852,83.396-237.45,94-250.478,94z M-268.366,8.883v61.484
		c0,9.869,8.025,17.89,17.888,17.89c9.861,0,17.887-8.021,17.887-17.89V8.883H-268.366z"/>
	<path fill="#FDFEFF" d="M-121.881,94h-38.761c-1.584,0-2.867-1.283-2.867-2.867V33.752h-11.225c-1.585,0-2.864-1.292-2.864-2.875
		v-42.456c0-11.586,9.418-21.012,21.011-21.012h30.655c11.586,0,21.014,9.426,21.014,21.012v42.456c0,1.583-1.285,2.875-2.871,2.875
		h-11.223v57.381C-119.012,92.717-120.299,94-121.881,94z M-157.766,88.257h33.018v-57.38c0-1.585,1.277-2.868,2.867-2.868h11.225
		v-39.588c0-8.423-6.854-15.272-15.275-15.272h-30.655c-8.422,0-15.276,6.85-15.276,15.272v39.588h11.221
		c1.588,0,2.876,1.282,2.876,2.868V88.257z"/>
	<path fill="#FDFEFF" d="M-141.258,94c-1.586,0-2.875-1.283-2.875-2.867V40.398c0-1.584,1.289-2.863,2.875-2.863
		c1.584,0,2.867,1.279,2.867,2.863v50.734C-138.391,92.717-139.674,94-141.258,94z"/>
	<path fill="#FDFEFF" d="M-160.642,33.752c-1.584,0-2.867-1.292-2.867-2.875V-6.976c0-1.585,1.283-2.869,2.867-2.869
		c1.588,0,2.876,1.283,2.876,2.869v37.853C-157.766,32.46-159.054,33.752-160.642,33.752z"/>
	<path fill="#FDFEFF" d="M-121.881,33.752c-1.59,0-2.867-1.292-2.867-2.875V-6.976c0-1.585,1.277-2.869,2.867-2.869
		c1.582,0,2.869,1.283,2.869,2.869v37.853C-119.012,32.46-120.299,33.752-121.881,33.752z"/>
	<path fill="#FDFEFF" d="M-141.258-34.656c-10.045,0-18.214-8.173-18.214-18.213c0-10.043,8.169-18.21,18.214-18.21
		c10.043,0,18.211,8.167,18.211,18.21C-123.047-42.829-131.215-34.656-141.258-34.656z M-141.258-65.34
		c-6.877,0-12.478,5.595-12.478,12.471c0,6.878,5.601,12.474,12.478,12.474c6.873,0,12.473-5.595,12.473-12.474
		C-128.785-59.745-134.385-65.34-141.258-65.34z"/>
	<path fill="#FDFEFF" d="M-103.529,94h-172.434c-1.588,0-2.87-1.283-2.87-2.867c0-1.587,1.282-2.876,2.87-2.876h172.434
		c1.584,0,2.871,1.289,2.871,2.876C-100.658,92.717-101.945,94-103.529,94z"/>
	<path fill="#FDFEFF" d="M-185.132-14.743h-29.153c-1.583,0-2.868-1.281-2.868-2.87v-19.913c0-1.588,1.286-2.871,2.868-2.871h39.551
		c1.586,0,2.871,1.283,2.871,2.871c0,1.584-1.285,2.869-2.871,2.869h-36.68v14.173h26.282c1.589,0,2.867,1.285,2.867,2.871
		C-182.265-16.024-183.543-14.743-185.132-14.743z"/>
	<path fill="#FDFEFF" d="M-185.914,1.53h-28.372c-1.583,0-2.868-1.284-2.868-2.87c0-1.584,1.286-2.87,2.868-2.87h28.372
		c1.586,0,2.866,1.286,2.866,2.87C-183.047,0.247-184.327,1.53-185.914,1.53z"/>
	<path fill="#FDFEFF" d="M-185.914,17.402h-28.372c-1.583,0-2.868-1.279-2.868-2.866c0-1.585,1.286-2.869,2.868-2.869h28.372
		c1.586,0,2.866,1.284,2.866,2.869C-183.047,16.124-184.327,17.402-185.914,17.402z"/>
	<path fill="#FDFEFF" d="M-185.914,33.281h-28.372c-1.583,0-2.868-1.286-2.868-2.869c0-1.584,1.286-2.872,2.868-2.872h28.372
		c1.586,0,2.866,1.288,2.866,2.872C-183.047,31.996-184.327,33.281-185.914,33.281z"/>
	<path fill="#FDFEFF" d="M-175.173,49.156h-39.112c-1.583,0-2.868-1.285-2.868-2.869c0-1.586,1.286-2.87,2.868-2.87h39.112
		c1.589,0,2.877,1.284,2.877,2.87C-172.296,47.871-173.584,49.156-175.173,49.156z"/>
	<path fill="#FDFEFF" d="M-175.173,65.031h-39.112c-1.583,0-2.868-1.284-2.868-2.869c0-1.584,1.286-2.869,2.868-2.869h39.112
		c1.589,0,2.877,1.285,2.877,2.869C-172.296,63.747-173.584,65.031-175.173,65.031z"/>
	<path fill="#FDFEFF" d="M-175.173,80.906h-39.112c-1.583,0-2.868-1.286-2.868-2.869s1.286-2.87,2.868-2.87h39.112
		c1.589,0,2.877,1.287,2.877,2.87S-173.584,80.906-175.173,80.906z"/>
</g>
<g>
	<path fill="#FDFEFF" d="M-0.365,34.132c-5.771,0-10.476-4.694-10.493-10.461l-0.083-27.104c-0.006-1.622,1.306-2.939,2.928-2.945
		c1.625,0,2.939,1.312,2.945,2.928l0.082,27.104c0.009,2.541,2.08,4.606,4.621,4.606c1.235,0,2.397-0.481,3.271-1.355
		c0.871-0.874,1.353-2.036,1.349-3.274L4.179-20.794c-0.003-3.11-2.538-5.639-5.647-5.639h-4.518c-3.441,0-6.744-1.05-9.555-3.03
		l-1.411-0.997c-1.326-0.936-1.643-2.767-0.707-4.093c0.936-1.323,2.767-1.643,4.089-0.707l1.414,0.997
		c1.816,1.279,3.949,1.957,6.169,1.957h4.518c6.342,0,11.511,5.16,11.52,11.503l0.076,44.421c0.006,2.811-1.085,5.451-3.068,7.434
		C5.08,33.041,2.439,34.132-0.365,34.132z"/>
	<path fill="#FDFEFF" d="M-26.676,94h-14.38c-3.987,0-7.231-3.244-7.231-7.229v-97.715c0-1.619,1.317-2.937,2.937-2.937
		c1.622,0,2.937,1.317,2.937,2.937v97.715c0,0.745,0.61,1.355,1.358,1.355h14.38c1.619,0,2.934,1.314,2.934,2.939
		C-23.743,92.686-25.057,94-26.676,94z"/>
	<path fill="#FDFEFF" d="M-26.676,94c-1.622,0-2.937-1.314-2.937-2.934V36.186c0-1.625,1.314-2.939,2.937-2.939
		c1.619,0,2.934,1.314,2.934,2.939v54.881C-23.743,92.686-25.057,94-26.676,94z"/>
	<path fill="#FDFEFF" d="M-26.676-35.82c-10.646,0-19.303-8.66-19.303-19.303s8.657-19.303,19.303-19.303
		c10.643,0,19.303,8.66,19.303,19.303S-16.033-35.82-26.676-35.82z M-26.676-68.555c-7.407,0-13.433,6.025-13.433,13.433
		c0,7.404,6.025,13.43,13.433,13.43c7.404,0,13.43-6.025,13.43-13.43C-13.247-62.53-19.272-68.555-26.676-68.555z"/>
	<path fill="#FDFEFF" d="M-26.676,94c-1.622,0-2.937-1.314-2.937-2.934V36.186c0-1.625,1.314-2.939,2.937-2.939
		c1.619,0,2.934,1.314,2.934,2.939v54.881C-23.743,92.686-25.057,94-26.676,94z"/>
	<path fill="#FDFEFF" d="M-12.296,94h-14.38c-1.622,0-2.937-1.314-2.937-2.934c0-1.625,1.314-2.939,2.937-2.939h14.38
		c0.748,0,1.355-0.61,1.355-1.355v-97.715c0-1.619,1.317-2.937,2.937-2.937c1.623,0,2.937,1.317,2.937,2.937v97.715
		C-5.068,90.756-8.309,94-12.296,94z"/>
	<path fill="#FDFEFF" d="M-26.676,94c-1.622,0-2.937-1.314-2.937-2.934V36.186c0-1.625,1.314-2.939,2.937-2.939
		c1.619,0,2.934,1.314,2.934,2.939v54.881C-23.743,92.686-25.057,94-26.676,94z"/>
	<path fill="#FDFEFF" d="M-52.902,34.026c-5.785,0-10.49-4.699-10.49-10.484v-44.327c0-6.352,5.169-11.521,11.52-11.521h4.503
		c2.221,0,4.354-0.677,6.167-1.957l1.42-1c1.323-0.927,3.159-0.613,4.092,0.709c0.933,1.326,0.613,3.16-0.71,4.093l-1.417,0.997
		c-2.808,1.98-6.11,3.03-9.552,3.03h-4.503c-3.112,0-5.647,2.535-5.647,5.647v44.327c0,2.546,2.071,4.617,4.617,4.617
		s4.615-2.071,4.615-4.617V-3.442c0-1.622,1.317-2.937,2.937-2.937c1.622,0,2.937,1.314,2.937,2.937v26.984
		C-42.415,29.327-47.12,34.026-52.902,34.026z"/>
	<path fill="#FDFEFF" d="M-26.676,94c-1.622,0-2.937-1.314-2.937-2.934V36.186c0-1.625,1.314-2.939,2.937-2.939
		c1.619,0,2.934,1.314,2.934,2.939v54.881C-23.743,92.686-25.057,94-26.676,94z"/>
	<path fill="#FDFEFF" d="M-26.676,12.46c-0.88,0-1.713-0.393-2.271-1.071l-6.422-7.818c-0.484-0.586-0.718-1.34-0.657-2.1
		l2.074-25.449c0.132-1.616,1.543-2.798,3.166-2.687c1.613,0.132,2.819,1.549,2.687,3.165l-1.98,24.264l3.403,4.136l3.4-4.136
		l-1.98-24.264c-0.132-1.616,1.074-3.033,2.69-3.165c1.64-0.103,3.033,1.071,3.166,2.687l2.074,25.449
		c0.062,0.76-0.176,1.514-0.66,2.1l-6.422,7.818C-24.966,12.067-25.799,12.46-26.676,12.46z"/>
	<path fill="#FDFEFF" d="M6.836,94C5.217,94,3.9,92.686,3.9,91.066c0-1.625,1.317-2.939,2.937-2.939
		c40.08,0,72.69-32.604,72.69-72.688c0-40.077-32.61-72.683-72.69-72.683c-1.619,0-2.937-1.314-2.937-2.937
		c0-1.62,1.317-2.937,2.937-2.937c43.318,0,78.561,35.24,78.561,78.556C85.397,58.762,50.155,94,6.836,94z"/>
	<path fill="#FDFEFF" d="M10.43,54.837H3.29c-1.623,0-2.937-1.313-2.937-2.934c0-1.619,1.314-2.934,2.937-2.934h7.14
		c10.512,0,20-0.81,29-2.464c15.753-2.898,29.229-7.915,38.112-14.169c1.314-5.521,1.984-11.2,1.984-16.897
		c0-5.692-0.67-11.366-1.984-16.89c-12.631-8.897-34.328-15.096-58.366-16.636c-1.619-0.105-2.845-1.502-2.746-3.119
		c0.106-1.619,1.508-2.851,3.122-2.743c26.044,1.667,48.761,8.37,62.332,18.385c0.545,0.405,0.934,0.982,1.098,1.643
		c1.602,6.313,2.416,12.829,2.416,19.36c0,6.536-0.814,13.055-2.416,19.367c-0.164,0.657-0.553,1.238-1.098,1.643
		c-9.568,7.058-24.266,12.685-41.392,15.835C31.14,54.004,21.306,54.837,10.43,54.837z"/>
	<path fill="#FDFEFF" d="M80.543,18.379H33.69c-2.676,0-4.848-1.314-4.848-2.939c0-1.618,2.172-2.935,4.848-2.935h46.853
		c2.686,0,4.854,1.317,4.854,2.935C85.397,17.065,83.229,18.379,80.543,18.379z"/>
	<path fill="#FDFEFF" d="M55.153,18.379h-1.044c-1.619,0-2.934-1.314-2.934-2.939c0-1.618,1.314-2.935,2.934-2.935h1.044
		c1.619,0,2.939,1.317,2.939,2.935C58.093,17.065,56.772,18.379,55.153,18.379z"/>
	<path fill="#FDFEFF" d="M75.718,94h-90.977c-1.623,0-2.937-1.314-2.937-2.934c0-1.625,1.314-2.939,2.937-2.939h90.977
		c1.625,0,2.939,1.314,2.939,2.939C78.657,92.686,77.343,94,75.718,94z"/>
	<path fill="#FDFEFF" d="M27.144,91.236c-0.469,0-0.944-0.105-1.391-0.346c-1.426-0.769-1.965-2.547-1.197-3.979
		c8.824-16.445,14.093-43.164,14.093-71.473c0-28.307-5.269-55.026-14.093-71.471c-0.769-1.429-0.229-3.207,1.197-3.975
		c1.432-0.76,3.209-0.229,3.978,1.2c9.258,17.258,14.785,45.015,14.785,74.247c0,29.236-5.527,56.993-14.785,74.248
		C29.198,90.68,28.188,91.236,27.144,91.236z"/>
</g>
</svg>
