<?xml version="1.0" encoding="utf-8"?>
<!-- Generator: Adobe Illustrator 24.1.1, SVG Export Plug-In . SVG Version: 6.00 Build 0)  -->
<svg version="1.1" id="圖層_1" xmlns="http://www.w3.org/2000/svg" xmlns:xlink="http://www.w3.org/1999/xlink" x="0px" y="0px"
	 viewBox="0 0 512 512" style="enable-background:new 0 0 512 512;" xml:space="preserve">
<style type="text/css">
	.st0{fill:#FFFFFF;}
</style>
<path class="st0" d="M95.7,78.1c0,7.4-6,13.4-13.4,13.4c-7.4,0-13.3-6-13.3-13.4c0-7.4,6-13.3,13.3-13.3
	C89.7,64.8,95.7,70.8,95.7,78.1z"/>
<path class="st0" d="M149.7,78.1c0,7.4-6,13.4-13.4,13.4c-7.4,0-13.3-6-13.3-13.4c0-7.4,6-13.3,13.3-13.3
	C143.7,64.8,149.7,70.8,149.7,78.1z"/>
<path class="st0" d="M203.7,78.1c0,7.4-6,13.4-13.4,13.4c-7.4,0-13.3-6-13.3-13.4c0-7.4,6-13.3,13.3-13.3
	C197.7,64.8,203.7,70.8,203.7,78.1z"/>
<path class="st0" d="M159.2,212.1c1.2,0,2.1,0.8,2.4,1.9l20.6,91.5c2.2,9.7,10.3,16.7,20.1,17.5c-3.5,5.3-5.6,11.7-5.6,18.5
	c0,18.4,15,33.4,33.4,33.4c18.4,0,33.4-15,33.4-33.4c0-6.8-2-13.1-5.6-18.4h50.5c-3.5,5.3-5.6,11.6-5.6,18.4
	c0,18.4,15,33.4,33.4,33.4s33.4-15,33.4-33.4c0-7.4-2.4-14.3-6.6-19.9c8.5-3.2,14.5-11.4,14.5-21c0-8-4.2-15.1-10.5-19
	c0,0,15.9-70.7,15.9-70.8c1-4.6-2.6-9.1-7.3-9.1H204.9c-5.8-20.4-24.2-34.5-45.6-34.5h-28c-12.4,0-22.5,10.1-22.5,22.5
	s10.1,22.5,22.5,22.5H159.2z M230.1,360c-10.2,0-18.4-8.3-18.4-18.4c0-10.2,8.3-18.4,18.4-18.4c10.2,0,18.4,8.3,18.4,18.4
	C248.5,351.7,240.2,360,230.1,360z M336.3,360c-10.2,0-18.4-8.3-18.4-18.4c0-10.2,8.3-18.4,18.4-18.4c10.2,0,18.4,8.3,18.4,18.4
	C354.8,351.7,346.5,360,336.3,360z M337.3,216.6h29.1l-4.7,21h-26.1L337.3,216.6z M334.3,252.6h24l-5.7,25.5h-20.3L334.3,252.6z
	 M294.9,216.6h27.4l-1.7,21h-25.7V216.6z M294.9,252.6h24.4l-2.1,25.5h-22.4L294.9,252.6L294.9,252.6z M279.9,216.6v21h-25.7
	l-1.7-21H279.9z M279.9,252.6v25.5h-22.4l-2.1-25.5H279.9z M242.4,278.1h-20.3l-5.7-25.5h23.9L242.4,278.1z M237.4,216.6l1.7,21
	h-26.1l-4.7-21H237.4z M123.7,189.6c0-4.1,3.4-7.5,7.5-7.5h28c15.3,0,28.3,10.4,31.7,25.3c0,0,17.9,79.8,17.9,79.8
	c0.8,3.3,3.9,5.8,7.3,5.9l141.4,0.4c3,1,5.2,3.8,5.2,7.1c0,4.1-3.4,7.5-7.5,7.5h-151c-3.5,0-6.5-2.4-7.3-5.9l-20.6-91.5
	c-1.8-8-8.8-13.6-17-13.6h-28C127.1,197.1,123.7,193.8,123.7,189.6z"/>
<path class="st0" d="M239.6,341.6c0,5.2-4.2,9.5-9.5,9.5c-5.2,0-9.5-4.2-9.5-9.5s4.2-9.5,9.5-9.5
	C235.3,332.1,239.6,336.3,239.6,341.6z"/>
<path class="st0" d="M345.8,341.6c0,5.2-4.2,9.5-9.5,9.5c-5.2,0-9.5-4.2-9.5-9.5s4.2-9.5,9.5-9.5
	C341.6,332.1,345.8,336.3,345.8,341.6z"/>
<path class="st0" d="M45.7,478.1h420.7c25.2,0,45.7-20.5,45.7-45.7V79.6c0-25.2-20.5-45.6-45.7-45.6h-67.2c-4.1,0-7.5,3.4-7.5,7.5
	s3.4,7.5,7.5,7.5h67.2c16.9,0,30.7,13.8,30.7,30.6v27.7H15V79.6C15,62.8,28.8,49,45.7,49h323.5c4.1,0,7.5-3.4,7.5-7.5
	s-3.4-7.5-7.5-7.5H45.7C20.5,34,0,54.5,0,79.6v352.8C0,457.6,20.5,478.1,45.7,478.1z M15,122.3h40v293.3c0,4.1,3.4,7.5,7.5,7.5h48.6
	c4.1,0,7.5-3.4,7.5-7.5c0-4.1-3.4-7.5-7.5-7.5H70V122.3h372v285.8H141.1c-4.1,0-7.5,3.4-7.5,7.5c0,4.1,3.4,7.5,7.5,7.5h308.4
	c4.1,0,7.5-3.4,7.5-7.5V122.3h40v310.1c0,16.9-13.8,30.7-30.7,30.7H45.7c-16.9,0-30.7-13.8-30.7-30.7V122.3z"/>
</svg>
