<?xml version="1.0" encoding="utf-8"?>
<!-- Generator: Adobe Illustrator 24.1.1, SVG Export Plug-In . SVG Version: 6.00 Build 0)  -->
<svg version="1.1" id="圖層_1" xmlns="http://www.w3.org/2000/svg" xmlns:xlink="http://www.w3.org/1999/xlink" x="0px" y="0px"
	 viewBox="0 0 512 512" style="enable-background:new 0 0 512 512;" xml:space="preserve">
<style type="text/css">
	.st0{fill:#FFFFFF;}
</style>
<path class="st0" d="M296,432h-16v-78.4c0-4.4-3.6-8-8-8s-8,3.6-8,8V432H56V272h66.6c4.4,0,8-3.6,8-8s-3.6-8-8-8H48
	c-4.4,0-8,3.6-8,8v168H24c-4.4,0-8,3.6-8,8v16c0,22.1,17.9,40,40,40h208c22.1,0,40-17.9,40-40v-16C304,435.6,300.4,432,296,432z
	 M288,456c0,13.3-10.7,24-24,24h-16v-8c0-4.4-3.6-8-8-8s-8,3.6-8,8v8H88v-8c0-4.4-3.6-8-8-8s-8,3.6-8,8v8H56c-13.3,0-24-10.7-24-24
	v-8h256V456z"/>
<path class="st0" d="M493.8,145.2l4.2-95.9c0.6-13.2-9.7-24.4-22.9-25l-16-0.7c-4.4-0.2-8.1,3.2-8.3,7.6c-0.2,4.4,3.2,8.1,7.6,8.3
	l16,0.7c4.4,0.2,7.8,3.9,7.6,8.3l-4.2,95.9c-0.2,4.4-3.9,7.8-8.3,7.6l-95.9-4.2c-4.4-0.2-7.8-3.9-7.6-8.3l4.2-95.9
	c0.2-4.4,3.9-7.8,8.3-7.6l48,2.1c4.4,0.2,8.1-3.2,8.3-7.6c0.2-4.4-3.2-8.1-7.6-8.3l-48-2.1c-13.2-0.6-24.4,9.7-25,22.9l-4.2,95.9
	c-0.6,13.2,9.7,24.4,22.9,25l95.9,4.2C482,168.7,493.2,158.5,493.8,145.2z"/>
<path class="st0" d="M392,336c0,17.7,14.3,32,32,32s32-14.3,32-32s-14.3-32-32-32S392,318.3,392,336z M440,336c0,8.8-7.2,16-16,16
	s-16-7.2-16-16s7.2-16,16-16S440,327.2,440,336z"/>
<path class="st0" d="M472,264h-96c-13.3,0-24,10.7-24,24v96c0,13.3,10.7,24,24,24h96c13.3,0,24-10.7,24-24v-16c0-4.4-3.6-8-8-8
	s-8,3.6-8,8v16c0,4.4-3.6,8-8,8h-96c-4.4,0-8-3.6-8-8v-96c0-4.4,3.6-8,8-8h96c4.4,0,8,3.6,8,8v48c0,4.4,3.6,8,8,8s8-3.6,8-8v-48
	C496,274.7,485.3,264,472,264z"/>
<path class="st0" d="M195.8,110.8c1.3,0.8,2.7,1.2,4.2,1.2c1.3,0,2.5-0.3,3.6-0.9l48-24c3.9-2,5.5-6.8,3.5-10.8
	c-0.8-1.5-2-2.7-3.5-3.5l-48-24c-3.9-2-8.8-0.4-10.7,3.5c-0.6,1.1-0.9,2.3-0.9,3.6v48C192,106.8,193.4,109.3,195.8,110.8z M208,69
	l22.1,11L208,91V69z"/>
<path class="st0" d="M216,152c39.8,0,72-32.2,72-72S255.8,8,216,8s-72,32.2-72,72S176.2,152,216,152z M216,24c30.9,0,56,25.1,56,56
	s-25.1,56-56,56s-56-25.1-56-56S185.1,24,216,24z"/>
<path class="st0" d="M296,184c2.5,0,4.9-1.2,6.4-3.2l24-32c2.6-3.5,1.9-8.6-1.6-11.2c-3.5-2.6-8.5-1.9-11.2,1.6l-24,32
	c-2.7,3.5-1.9,8.5,1.6,11.2C292.6,183.4,294.3,184,296,184z"/>
<path class="st0" d="M313.6,212.8c1.5,2,3.9,3.2,6.4,3.2c1.7,0,3.4-0.6,4.8-1.6l32-24c3.5-2.7,4.3-7.7,1.6-11.2
	c-2.7-3.5-7.7-4.3-11.2-1.6l-32,24C311.7,204.3,310.9,209.3,313.6,212.8L313.6,212.8z"/>
<path class="st0" d="M392,230.4c-0.8-4.3-4.9-7.2-9.3-6.5c-0.1,0-0.2,0-0.3,0.1l-40,8c-4.4,0.4-7.6,4.4-7.2,8.8
	c0.4,4.4,4.4,7.6,8.8,7.2h1.6l40-8c4.3-0.8,7.2-4.9,6.5-9.3C392,230.6,392,230.5,392,230.4z"/>
<path class="st0" d="M24,232h96c4.4,0,8-3.6,8-8V96c0-4.4-3.6-8-8-8H24c-4.4,0-8,3.6-8,8v128C16,228.4,19.6,232,24,232z M32,104h80
	v112H32V104z"/>
<path class="st0" d="M88,120H72c-4.4,0-8,3.6-8,8c0,4.4,3.6,8,8,8h16c4.4,0,8-3.6,8-8C96,123.6,92.4,120,88,120z"/>
<path class="st0" d="M88,152H56c-4.4,0-8,3.6-8,8s3.6,8,8,8h32c4.4,0,8-3.6,8-8S92.4,152,88,152z"/>
<path class="st0" d="M88,184H56c-4.4,0-8,3.6-8,8s3.6,8,8,8h32c4.4,0,8-3.6,8-8S92.4,184,88,184z"/>
<path class="st0" d="M289,229.6c-2.2-3.8-7.1-5.2-11-3c-3.8,2.2-5.2,7.1-3,11l35.3,61l-128,48c0,0,0,0-0.6,0h-0.6l-20.8,12l-13.8,8
	c-3.7,2.1-8.1,2.7-12.2,1.6c-4.1-1.1-7.6-3.8-9.7-7.4l-16-27.7c-3.9-7.5-1.3-16.8,6-21.1l27.7-16l20,34.6c1.4,2.5,4.1,4,7,4
	c4.4,0,8-3.5,8-8c0-1.4-0.4-2.8-1.1-4L155.6,287L256,204.2l3.3,5.7c2.2,3.8,7.1,5.2,11,3c3.8-2.2,5.2-7.1,3-11l-8-13.8
	c-1.2-2-3.2-3.4-5.5-3.8c-2.3-0.4-4.7,0.2-6.6,1.7l-112,92.3L107,297.8c-12.6,7.3-18.6,22.2-14.7,36.2l-8,4.6
	c-11.5,6.6-15.5,21.3-8.9,32.8c3.2,5.5,8.4,9.6,14.6,11.2c2,0.5,4.1,0.8,6.2,0.8c4.2,0,8.3-1.1,12-3.2l8-4.6c3.8,4,8.7,6.8,14,8.3
	c2.7,0.8,5.6,1.1,8.4,1.1c5.6,0,11.1-1.5,16-4.3l7-4l16,27.8c6.6,11.4,21.3,15.4,32.7,8.8c11.5-6.6,15.4-21.3,8.8-32.8c0,0,0,0,0,0
	l-14.6-25.4l120-45c2.2-0.8,3.9-2.6,4.7-4.8c0.8-2.2,0.6-4.6-0.6-6.6L289,229.6z M100,366.3c-1.8,1.1-4,1.4-6.1,0.8
	c-2-0.5-3.8-1.9-4.9-3.7c-1.1-1.8-1.4-4-0.8-6.1c0.6-2.1,1.9-3.8,3.8-4.9l7-4l8,13.8L100,366.3z M205.3,388.7c1.1,1.8,1.4,4,0.8,6.1
	c-0.6,2-1.9,3.8-3.8,4.8c-3.8,2.2-8.7,0.9-10.9-2.9l-16-27.8l13.3-7.6h0.6L205.3,388.7z"/>
<path class="st0" d="M422.8,66.6c2.9,0,6,0.4,9.2,1.1c20,4.9,24,21,21,29.7c-5.1,15-27,21-38.1,23.9c-0.9,0.2-1.7,0.4-2.2,0.4
	c-1.4,0-1.9-0.6-1.5-1.7c0.4-1,1.4-2.4,1.8-3.2c1.2-2.1,1-3.4-1.9-4.6c-20.3-9-17.3-25.4-16.1-28.2C398.7,74.5,409,66.6,422.8,66.6
	 M422.8,52.6c-9.2,0-18,2.6-25.4,7.5c-7,4.6-12.5,11.2-15.4,18.6c-1.8,4.3-2.9,12.4-0.4,21c1.8,6.1,6,14.2,15.5,20.7
	c-0.1,3.2,0.8,6.3,2.7,9c2.9,4.1,7.6,6.5,12.9,6.5c1.8,0,3.7-0.3,5.8-0.8c12-3.2,40.2-10.6,47.8-32.9c2.9-8.6,1.9-19-2.9-27.6
	c-3.9-7-11.9-16.3-28-20.2C431.1,53.1,426.9,52.6,422.8,52.6L422.8,52.6z"/>
</svg>
